# xmcd
#
# Track frame offsets:
#	150
#	11990
#	24684
#	33662
#	46104
#	60659
#	74223
#	90847
#	108624
#	122117
#	132927
#	145726
#	168590
#	177221
#
# Disc length: 2486 seconds
#
# Revision: 1
# Processed by: cddbd v1.5.2PL0 Copyright (c) Steve Scherf et al.
# Submitted via: audiograbber 1.83.01
#
DISCID=c909b40e
DTITLE=Various Artist - Golden Pop Hits 3
DYEAR=2007
DGENRE=Oldies
TTITLE0=Pickett, Wilson - In The Midnight Hour
TTITLE1=Amen Corner - ( If Pardise Is ) Half As Nice
TTITLE2=Jareau, Al - Aint No Sunshine
TTITLE3=Martin, Dean - Everybody Loves Somebody
TTITLE4=Bennett, Tony - As Time Goes By
TTITLE5=Brotherhood of Man - Save Your Kisses For Me
TTITLE6=Ronstadt, Linda - I'll Be Your Baby Tonight
TTITLE7=Animals, The - Don't Let Me Be Misunderstood
TTITLE8=Lopez, Trini - If I Had A Hammer
TTITLE9=Checker, Chubby - Let's Twist Again
TTITLE10=Roe, Tommy - Dizzy
TTITLE11=Santana - Jin-Go-Lo - Ba
TTITLE12=Box Tops, The - The Letter
TTITLE13=Beach Boys, The - Surfin Safari
EXTD=
EXTT0=
EXTT1=
EXTT2=
EXTT3=
EXTT4=
EXTT5=
EXTT6=
EXTT7=
EXTT8=
EXTT9=
EXTT10=
EXTT11=
EXTT12=
EXTT13=
PLAYORDER=
